<svg id="Calque_1" xmlns="http://www.w3.org/2000/svg" viewBox="0 0 334.4 69.8"><style>.st0{fill:#0e76b7}.st1{fill:#a0bf32}</style><path class="st0" d="M55.9 40.1c-2.7-1.4-7.6-1.7-14.6-.9l-7.8.9c-6.6.7-12 .1-16-2C13.3 36 9.9 32.6 7.1 28c-3-5-4-10.2-3-15.6C.2 19.2-.9 27.5.9 35.8c.7 2.3 1.3 4.4 1.9 6.3 1.9 4.8 4.7 9.5 8.5 13.7C20.7 66.2 33.7 71 45.2 69.6c.7-.1 1.4-.3 2.2-.4 3.5-.8 6.3-1.9 8.6-3.3 4-2.4 6.6-5.5 7.7-9.2 1.1-3.7.6-7.2-1.4-10.7-1.6-2.5-3.8-4.5-6.4-5.9z"/><path class="st1" d="M34.1 26.6c2.5 1.6 7.4 2.4 14.4 2.4h7.9c6.7 0 11.9 1.2 15.8 3.5 3.8 2.4 6.9 5.9 9.3 10.6 2.5 5 3 10 1.5 15 4.6-6 6.4-13.7 5.5-21.7-.4-2.2-.9-4.3-1.3-6.2-1.4-4.7-3.8-9.4-7.1-13.8C71.5 5.7 59.1-.2 47.5 0c-.7 0-1.4.1-2.2.2-3.5.4-6.5 1.1-8.9 2.2-4.3 1.9-7.1 4.5-8.6 7.9-1.5 3.4-1.3 6.8.4 10.2 1.4 2.5 3.3 4.6 5.9 6.1z"/><path class="st0" d="M112.9 40.7c2.1 2.2 5.4 4 9.5 4 3.5 0 5.2-1.7 5.2-3.4 0-2.2-2.6-3-6-3.8-4.9-1.1-11.1-2.5-11.1-9.1 0-5 4.3-9 11.3-9 4.7 0 8.7 1.4 11.6 4.2l-3.5 4.6c-2.4-2.2-5.6-3.3-8.5-3.3-2.9 0-4.4 1.3-4.4 3 0 2 2.5 2.6 5.9 3.4 4.9 1.1 11.2 2.6 11.2 9.2 0 5.5-3.9 9.6-11.9 9.6-5.7 0-9.8-1.9-12.6-4.7l3.3-4.7zM152.5 19.5c9 0 15.6 6.4 15.6 15.4s-6.6 15.4-15.6 15.4-15.6-6.4-15.6-15.4 6.6-15.4 15.6-15.4zm0 5.6c-5.5 0-9 4.2-9 9.8 0 5.5 3.5 9.8 9 9.8s9.1-4.2 9.1-9.8c-.1-5.6-3.6-9.8-9.1-9.8zM172.5 19.9h11.8c9.3 0 15.8 5.9 15.8 14.9s-6.5 14.9-15.8 14.9h-11.8V19.9zm11.8 24.3c5.9 0 9.3-4.2 9.3-9.3 0-5.3-3.2-9.3-9.3-9.3h-5.4v18.6h5.4zM204.6 19.9h6.4v29.8h-6.4V19.9zM218.3 40.7c2.1 2.2 5.4 4 9.5 4 3.5 0 5.2-1.7 5.2-3.4 0-2.2-2.6-3-6-3.8-4.9-1.1-11.1-2.5-11.1-9.1 0-5 4.3-9 11.3-9 4.7 0 8.7 1.4 11.6 4.2l-3.5 4.6c-2.4-2.2-5.6-3.3-8.5-3.3-2.9 0-4.4 1.3-4.4 3 0 2 2.5 2.6 5.9 3.4 4.9 1.1 11.2 2.6 11.2 9.2 0 5.5-3.9 9.6-11.9 9.6-5.7 0-9.8-1.9-12.6-4.7l3.3-4.7zM258.2 19.5c6.2 0 10.1 3 12.3 6.5l-5.3 2.9c-1.4-2.1-3.9-3.8-7.1-3.8-5.4 0-9.3 4.2-9.3 9.8 0 5.6 3.9 9.8 9.3 9.8 2.7 0 5.1-1.1 6.4-2.3v-3.6h-8v-5.5h14.2v11.4c-3 3.4-7.3 5.6-12.7 5.6-8.7 0-15.9-6.1-15.9-15.5.2-9.4 7.4-15.3 16.1-15.3zM286.9 39.1h-4.7v10.7h-6.4V19.9h14c6.2 0 10 4.1 10 9.6 0 5.3-3.3 8.1-6.5 8.9l6.7 11.4h-7.3l-5.8-10.7zm2-13.7h-6.7v8.2h6.7c2.5 0 4.5-1.6 4.5-4.1s-1.9-4.1-4.5-4.1zM318.8 19.5c9 0 15.6 6.4 15.6 15.4s-6.6 15.4-15.6 15.4-15.6-6.4-15.6-15.4 6.6-15.4 15.6-15.4zm0 5.6c-5.5 0-9 4.2-9 9.8 0 5.5 3.5 9.8 9 9.8s9.1-4.2 9.1-9.8c0-5.6-3.6-9.8-9.1-9.8z"/></svg>