<svg xmlns="http://www.w3.org/2000/svg" viewBox="0 0 75 75"><path d="M25.7 12.5l4 4c2.3 2.3 2.3 5.1 0 7.4l-5 5c-.4.4-.5.8-.3 1.3 1.1 2.7 2.7 5 4.5 7.2 3.6 4.5 7.7 8.4 12.6 11.5 1 .7 2.2 1.1 3.3 1.7.6.3.9.2 1.4-.3 1.6-1.7 3.3-3.4 5-5 2.2-2.2 5-2.2 7.2 0l8.1 8.1c2.3 2.3 2.2 5 0 7.3-1.5 1.5-3.1 3-4.6 4.6-2.1 2.4-4.8 3.1-7.8 3-4.4-.2-8.4-1.7-12.4-3.6-8.7-4.2-16.1-10.1-22.3-17.4-4.5-5.6-8.3-11.5-10.8-18.3-1.2-3.2-2-6.5-1.8-10 .2-2.2 1-4 2.6-5.5 1.7-1.6 3.4-3.4 5-5 2.2-2.2 5-2.2 7.2 0 1.4 1.3 2.8 2.6 4.1 4z"/></svg>