<svg xmlns="http://www.w3.org/2000/svg" viewBox="0 0 36.7 36.7"><path d="M13.4 2.2c-3 0-5.8 1.2-7.9 3.3-2.1 2.1-3.3 4.9-3.3 7.9s1.2 5.8 3.3 7.9c2.1 2.1 4.9 3.3 7.9 3.3s5.8-1.2 7.9-3.3c4.4-4.4 4.4-11.4 0-15.8-2.1-2.1-4.9-3.3-7.9-3.3zm0 24.6c-3.6 0-6.9-1.4-9.5-3.9C1.4 20.4 0 17 0 13.4s1.4-6.9 3.9-9.5C6.5 1.4 9.8 0 13.4 0s7 1.4 9.5 3.9c5.2 5.2 5.2 13.7 0 19-2.5 2.5-5.9 3.9-9.5 3.9z"/><path d="M35.6 36.7c-.3 0-.6-.1-.8-.3L21.3 22.9c-.4-.4-.4-1.2 0-1.6.4-.4 1.2-.4 1.6 0l13.5 13.5c.4.4.4 1.2 0 1.6-.2.2-.5.3-.8.3z"/></svg>