<svg id="Calque_1" xmlns="http://www.w3.org/2000/svg" viewBox="0 0 75 75"><style>.st0{fill-rule:evenodd;clip-rule:evenodd}</style><path d="M37.5 6.8c-17 0-30.8 13.8-30.8 30.8s13.8 30.8 30.8 30.8 30.8-13.8 30.8-30.8S54.5 6.8 37.5 6.8zm0 6c13.6 0 24.8 11.1 24.8 24.8S51.1 62.2 37.5 62.2 12.8 51.1 12.8 37.5s11.1-24.7 24.7-24.7"/><path class="st0" d="M49.5 48.2c-1.1 4.8-6.1 8.5-12.1 8.5s-11-3.7-12.1-8.5M33.5 31.6c0 6.5-9.8 6.5-9.8 0 .1-6.6 9.8-6.6 9.8 0M51.2 31.6c0 6.5-9.8 6.5-9.8 0 .1-6.5 9.8-6.5 9.8 0"/></svg>