<?xml version="1.0" standalone="no"?>
<!DOCTYPE svg PUBLIC "-//W3C//DTD SVG 20010904//EN"
 "http://www.w3.org/TR/2001/REC-SVG-20010904/DTD/svg10.dtd">
<svg version="1.0" xmlns="http://www.w3.org/2000/svg"
 width="700.000000pt" height="700.000000pt" viewBox="0 0 700.000000 700.000000"
 preserveAspectRatio="xMidYMid meet">
<metadata>
Created by potrace 1.11, written by Peter Selinger 2001-2013
</metadata>
<g transform="translate(0.000000,700.000000) scale(0.100000,-0.100000)"
fill="#000000" stroke="none">
<path d="M3610 5939 c-61 -7 -112 -14 -185 -25 -501 -77 -881 -303 -1054 -625
-34 -65 -77 -174 -86 -219 -43 -231 -3 -436 125 -628 68 -103 96 -137 172
-210 103 -100 231 -179 355 -221 73 -25 228 -58 303 -66 30 -3 73 -8 95 -10
101 -13 214 -16 695 -20 283 -2 540 -6 570 -9 30 -3 82 -9 115 -12 33 -4 67
-8 75 -9 8 -1 35 -6 60 -10 409 -67 708 -229 965 -522 220 -251 397 -610 431
-873 2 -19 7 -46 10 -60 6 -31 6 -267 0 -296 -2 -12 -7 -45 -11 -74 -4 -29
-13 -73 -21 -99 -19 -63 -18 -68 8 -35 164 208 316 589 353 884 20 161 24 355
12 515 -6 72 -42 273 -74 410 -2 11 -7 33 -10 50 -16 91 -117 355 -197 515
-182 366 -418 667 -736 941 -120 104 -331 255 -445 320 -169 95 -381 199 -409
199 -6 0 -16 4 -21 9 -19 17 -318 111 -400 126 -47 8 -75 14 -93 19 -9 3 -39
8 -67 11 -27 3 -61 8 -75 10 -99 19 -353 26 -460 14z"/>
<path d="M620 4964 c-147 -302 -223 -637 -222 -982 1 -126 13 -302 27 -372 2
-14 7 -38 10 -55 14 -86 27 -141 55 -236 17 -57 46 -153 64 -214 76 -252 230
-551 415 -803 161 -219 305 -373 548 -584 41 -35 205 -155 273 -200 319 -209
698 -360 1055 -422 50 -9 101 -18 115 -21 36 -7 253 -19 340 -19 81 1 261 13
270 19 4 2 29 7 56 10 119 16 366 89 490 145 35 17 66 30 69 30 5 0 195 111
210 122 6 4 35 26 65 49 200 151 343 357 400 579 7 25 14 54 17 65 13 48 11
273 -3 337 -49 230 -173 428 -369 588 -219 178 -366 223 -730 224 -174 1 -378
-8 -433 -19 -10 -2 -49 -6 -86 -10 -37 -3 -82 -8 -100 -10 -17 -2 -60 -7 -96
-11 -36 -3 -73 -8 -83 -10 -10 -2 -48 -6 -85 -10 -36 -3 -74 -8 -85 -9 -16 -4
-74 -9 -217 -21 -131 -10 -404 -4 -499 11 -13 2 -45 7 -70 11 -163 23 -354 95
-518 195 -372 228 -694 668 -807 1104 -39 151 -52 378 -31 533 7 48 11 88 10
90 -2 2 -26 -45 -55 -104z"/>
</g>
</svg>
