<svg viewBox="0 0 100 100" xmlns="http://www.w3.org/2000/svg"><symbol viewBox="0 0 67.5 54" id="icon-cart"><title>cart</title> <path d="M62.2,12l-8.5,17.7l-29.2,1.7L17.8,12L62.2,12L62.2,12z M55.2,33.8c0.7,0,1.4-0.5,1.7-1.2l10.4-21.7c0.3-0.6,0.3-1.4-0.1-2
	c-0.4-0.6-1-1-1.7-1H16.4l-2.3-6.5C13.8,0.6,13,0,12.2,0H2.1C0.9,0,0,0.9,0,2.1s0.9,2.1,2.1,2.1h8.7L24,42.5h-7v0.1
	c-3.2,0-5.7,2.6-5.7,5.7c0,3.1,2.6,5.7,5.7,5.7c3.1,0,5.7-2.6,5.7-5.7c0-0.6-0.1-1.2-0.3-1.7h4.4h0h0h27.4c-0.2,0.5-0.3,1.1-0.3,1.7
	c0,3.1,2.6,5.7,5.7,5.7s5.7-2.6,5.7-5.7c0-3.1-2.6-5.7-5.7-5.7v-0.1H28.4l-2.4-7L55.2,33.8z"/> </symbol><symbol viewBox="0 0 75 75" id="icon-close"><title>close</title> <style type="text/css"> .st0{fill-rule:evenodd;clip-rule:evenodd;} </style> <path class="st0" d="M8,15.4L15.4,8c1.8-1.8,4.8-1.8,6.6,0l15.4,15.4L52.9,8c1.8-1.8,4.8-1.8,6.6,0l7.4,7.4c1.8,1.8,1.8,4.8,0,6.6
	L51.6,37.5L67,52.9c1.8,1.8,1.8,4.8,0,6.6L59.6,67c-1.8,1.8-4.8,1.8-6.6,0L37.5,51.6L22.1,67c-1.8,1.8-4.8,1.8-6.6,0L8,59.6
	c-1.8-1.8-1.8-4.8,0-6.6l15.4-15.4L8,22.1C6.2,20.2,6.2,17.3,8,15.4z"/> </symbol><symbol viewBox="0 0 75 75" id="icon-delete"><title>delete</title> <g> <path d="M22.4,28.9h5.8v31.3c0,1.6-1.3,2.9-2.9,2.9s-2.9-1.3-2.9-2.9V28.9z M34.6,28.9h5.8v31.3c0,1.6-1.3,2.9-2.9,2.9
		c-1.6,0-2.9-1.3-2.9-2.9V28.9z M46.7,28.9h5.8v31.3c0,1.6-1.3,2.9-2.9,2.9c-1.6,0-2.9-1.3-2.9-2.9V28.9z M16.8,63.8
		c0,2.1,1.7,3.8,3.8,3.8h33.9c2.1,0,3.8-1.7,3.8-3.8V25.1H16.8V63.8z"/> <path d="M58.2,11.5H43.4V9.3c0,0-0.1-1.9-2-1.9h-8.1c-1.9,0-1.8,1.9-1.8,1.9v2.1H16.8c-2.1,0-3.8,1.7-3.8,3.8v6.2h49v-6.2
		C62,13.1,60.3,11.5,58.2,11.5z"/> </g> </symbol><symbol viewBox="0 0 50 50" id="icon-mail"><title>mail</title> <g> <path d="M25.8,31.8c-0.3,0.3-0.7,0.4-1.1,0.4c-0.4,0-0.8-0.2-1.1-0.4L4.2,12.3C4.1,12.5,4,12.7,4,13v24c0,1.7,1.3,3,3,3h36
		c1.7,0,3-1.3,3-3V13c0-0.4-0.1-0.8-0.2-1.2L25.8,31.8z"/> <path d="M24.7,28.6l18.6-18.6c-0.1,0-0.2-0.1-0.3-0.1H7c-0.3,0-0.5,0.1-0.7,0.1L24.7,28.6z"/> </g> </symbol><symbol viewBox="0 0 75 75" id="icon-phone"><title>phone</title> <path d="M25.7,12.5c1.3,1.3,2.6,2.6,4,4c2.3,2.3,2.3,5.1,0,7.4c-1.7,1.7-3.3,3.3-5,5c-0.4,0.4-0.5,0.8-0.3,1.3
	c1.1,2.7,2.7,5,4.5,7.2c3.6,4.5,7.7,8.4,12.6,11.5c1,0.7,2.2,1.1,3.3,1.7c0.6,0.3,0.9,0.2,1.4-0.3c1.6-1.7,3.3-3.4,5-5
	c2.2-2.2,5-2.2,7.2,0c2.7,2.7,5.4,5.4,8.1,8.1c2.3,2.3,2.2,5,0,7.3c-1.5,1.5-3.1,3-4.6,4.6c-2.1,2.4-4.8,3.1-7.8,3
	c-4.4-0.2-8.4-1.7-12.4-3.6c-8.7-4.2-16.1-10.1-22.3-17.4C14.9,41.7,11.1,35.8,8.6,29C7.4,25.8,6.6,22.5,6.8,19c0.2-2.2,1-4,2.6-5.5
	c1.7-1.6,3.4-3.4,5-5c2.2-2.2,5-2.2,7.2,0C23,9.8,24.4,11.1,25.7,12.5z"/> </symbol><symbol viewBox="0 0 75 75" id="icon-refresh"><title>refresh</title> <path d="M20.1,22.2c7.7-9.1,20.8-11,30.8-4C57.7,22.9,61.6,29,61.8,37l9.3,0.2c-0.3-11-5.5-20.7-14.9-27.3
	C41.8-0.2,22.8,3,12.1,16.6L6,12.3L4.6,37.2l21.2-11L20.1,22.2z M71.1,40.8l-21.2,11l5.6,4c-7.7,9.1-20.8,11-30.8,4
	C18,55,14.5,48.7,14.3,40.7l-9.7,0.2c0.3,11,5.5,20.5,15,27.1c14.4,10.1,33.4,6.9,44-6.8l6.1,4.3L71.1,40.8z"/> </symbol><symbol viewBox="0 0 36.7 36.7" id="icon-search"><title>search</title> <path d="M13.4,2.2c-3,0-5.8,1.2-7.9,3.3c-2.1,2.1-3.3,4.9-3.3,7.9c0,3,1.2,5.8,3.3,7.9c2.1,2.1,4.9,3.3,7.9,3.3c3,0,5.8-1.2,7.9-3.3
	c4.4-4.4,4.4-11.4,0-15.8C19.2,3.4,16.4,2.2,13.4,2.2z M13.4,26.8c-3.6,0-6.9-1.4-9.5-3.9C1.4,20.4,0,17,0,13.4s1.4-6.9,3.9-9.5
	C6.5,1.4,9.8,0,13.4,0s7,1.4,9.5,3.9c5.2,5.2,5.2,13.7,0,19C20.4,25.4,17,26.8,13.4,26.8z"/> <path d="M35.6,36.7c-0.3,0-0.6-0.1-0.8-0.3L21.3,22.9c-0.4-0.4-0.4-1.2,0-1.6c0.4-0.4,1.2-0.4,1.6,0l13.5,13.5
	c0.4,0.4,0.4,1.2,0,1.6C36.2,36.6,35.9,36.7,35.6,36.7z"/> </symbol><symbol viewBox="0 0 75 75" id="icon-smile"><title>smile</title> <style type="text/css"> .st0{fill-rule:evenodd;clip-rule:evenodd;} </style> <g> <path d="M37.5,6.8c-17,0-30.8,13.8-30.8,30.8s13.8,30.8,30.8,30.8s30.8-13.8,30.8-30.8S54.5,6.8,37.5,6.8z M37.5,12.8
		c13.6,0,24.8,11.1,24.8,24.8S51.1,62.2,37.5,62.2S12.8,51.1,12.8,37.5S23.9,12.8,37.5,12.8"/> <path class="st0" d="M49.5,48.2c-1.1,4.8-6.1,8.5-12.1,8.5c-6,0-11-3.7-12.1-8.5"/> <path class="st0" d="M33.5,31.6c0,6.5-9.8,6.5-9.8,0C23.8,25,33.5,25,33.5,31.6"/> <path class="st0" d="M51.2,31.6c0,6.5-9.8,6.5-9.8,0C41.5,25.1,51.2,25.1,51.2,31.6"/> </g> </symbol><symbol viewBox="0 0 75 75" id="icon-tick"><title>tick</title> <path d="M66.4,19.4c-0.5-1-2.3-3.1-5.5-6.1c-3.5-3.3-5.6-4.6-6.3-3.9c-1.7,1.6-3.6,3.5-5.6,5.5c-2.1,2.3-3.8,4.2-5.1,5.7
	c-2.3,2.7-4.3,5.1-6.1,7.3c-3.4,4.1-6.3,7.7-8.5,10.6c-0.1-0.2-2.1-1.7-5.9-4.6c-3.7-2.8-5.5-4.3-5.6-4.4c-0.8,0.7-2.6,2.8-5.3,6.1
	c-2.7,3.4-4.1,5.2-4.1,5.6l12.2,13.1c0,0,3.4,3.8,10.1,11.2c0.3,0.2,0.5,0.3,0.7,0.3c1.1-1.9,2.9-4.7,5.3-8.2
	c3.5-5.1,7.1-10.1,10.8-15c2.6-3.3,6.7-8.4,12.5-15.1C64.5,22.4,66.6,19.7,66.4,19.4z"/> </symbol></svg>